Blocksync-ExpandedRegular.ufo
<glyph name="exclam" format="2">
  <advance width="251"/>
  <unicode hex="0021"/>
  <outline>
    <contour>
      <point x="103" y="274" type="curve" smooth="yes"/>
      <point x="149" y="274" type="line" smooth="yes"/>
      <point x="178" y="274"/>
      <point x="184" y="287"/>
      <point x="194" y="320" type="curve" smooth="yes"/>
      <point x="210" y="370"/>
      <point x="229" y="421"/>
      <point x="229" y="471" type="curve" smooth="yes"/>
      <point x="229" y="754" type="line" smooth="yes"/>
      <point x="229" y="789"/>
      <point x="217" y="800"/>
      <point x="183" y="800" type="curve" smooth="yes"/>
      <point x="69" y="800" type="line" smooth="yes"/>
      <point x="34" y="800"/>
      <point x="23" y="789"/>
      <point x="23" y="754" type="curve" smooth="yes"/>
      <point x="23" y="467" type="line" smooth="yes"/>
      <point x="23" y="418"/>
      <point x="41" y="369"/>
      <point x="57" y="320" type="curve" smooth="yes"/>
      <point x="67" y="287"/>
      <point x="73" y="274"/>
    </contour>
    <contour>
      <point x="86" y="0" type="curve" smooth="yes"/>
      <point x="166" y="0" type="line" smooth="yes"/>
      <point x="200" y="0"/>
      <point x="211" y="11"/>
      <point x="211" y="46" type="curve" smooth="yes"/>
      <point x="211" y="126" type="line" smooth="yes"/>
      <point x="211" y="160"/>
      <point x="200" y="171"/>
      <point x="166" y="171" type="curve" smooth="yes"/>
      <point x="86" y="171" type="line" smooth="yes"/>
      <point x="51" y="171"/>
      <point x="40" y="160"/>
      <point x="40" y="126" type="curve" smooth="yes"/>
      <point x="40" y="46" type="line" smooth="yes"/>
      <point x="40" y="11"/>
      <point x="51" y="0"/>
    </contour>
  </outline>
</glyph>
<glyph name="percent" format="2">
  <advance width="686"/>
  <unicode hex="0025"/>
  <outline>
    <contour>
      <point x="58" y="0" type="curve" smooth="yes"/>
      <point x="115" y="0" type="line" smooth="yes"/>
      <point x="150" y="0"/>
      <point x="163" y="17"/>
      <point x="184" y="46" type="curve" smooth="yes"/>
      <point x="658" y="729" type="line" smooth="yes"/>
      <point x="669" y="744"/>
      <point x="674" y="756"/>
      <point x="674" y="767" type="curve" smooth="yes"/>
      <point x="674" y="792"/>
      <point x="657" y="800"/>
      <point x="628" y="800" type="curve" smooth="yes"/>
      <point x="570" y="800" type="line" smooth="yes"/>
      <point x="536" y="800"/>
      <point x="521" y="783"/>
      <point x="502" y="754" type="curve" smooth="yes"/>
      <point x="33" y="80" type="line" smooth="yes"/>
      <point x="19" y="59"/>
      <point x="11" y="46"/>
      <point x="11" y="33" type="curve" smooth="yes"/>
      <point x="11" y="9"/>
      <point x="29" y="0"/>
    </contour>
    <contour>
      <point x="529" y="-11" type="curve" smooth="yes"/>
      <point x="620" y="-11"/>
      <point x="674" y="33"/>
      <point x="674" y="123" type="curve" smooth="yes"/>
      <point x="674" y="225" type="line" smooth="yes"/>
      <point x="674" y="314"/>
      <point x="620" y="360"/>
      <point x="529" y="360" type="curve" smooth="yes"/>
      <point x="440" y="360"/>
      <point x="385" y="314"/>
      <point x="385" y="225" type="curve" smooth="yes"/>
      <point x="385" y="123" type="line" smooth="yes"/>
      <point x="385" y="33"/>
      <point x="440" y="-11"/>
    </contour>
    <contour>
      <point x="529" y="85" type="curve" smooth="yes"/>
      <point x="510" y="85"/>
      <point x="504" y="97"/>
      <point x="504" y="117" type="curve" smooth="yes"/>
      <point x="504" y="231" type="line" smooth="yes"/>
      <point x="504" y="250"/>
      <point x="510" y="263"/>
      <point x="529" y="263" type="curve" smooth="yes"/>
      <point x="549" y="263"/>
      <point x="555" y="250"/>
      <point x="555" y="231" type="curve" smooth="yes"/>
      <point x="555" y="117" type="line" smooth="yes"/>
      <point x="555" y="97"/>
      <point x="549" y="85"/>
    </contour>
    <contour>
      <point x="155" y="440" type="curve" smooth="yes"/>
      <point x="246" y="440"/>
      <point x="301" y="485"/>
      <point x="301" y="575" type="curve" smooth="yes"/>
      <point x="301" y="677" type="line" smooth="yes"/>
      <point x="301" y="766"/>
      <point x="246" y="812"/>
      <point x="155" y="812" type="curve" smooth="yes"/>
      <point x="66" y="812"/>
      <point x="11" y="766"/>
      <point x="11" y="677" type="curve" smooth="yes"/>
      <point x="11" y="575" type="line" smooth="yes"/>
      <point x="11" y="485"/>
      <point x="66" y="440"/>
    </contour>
    <contour>
      <point x="155" y="536" type="curve" smooth="yes"/>
      <point x="136" y="536"/>
      <point x="130" y="549"/>
      <point x="130" y="568" type="curve" smooth="yes"/>
      <point x="130" y="682" type="line" smooth="yes"/>
      <point x="130" y="702"/>
      <point x="136" y="714"/>
      <point x="155" y="714" type="curve" smooth="yes"/>
      <point x="175" y="714"/>
      <point x="182" y="702"/>
      <point x="182" y="682" type="curve" smooth="yes"/>
      <point x="182" y="568" type="line" smooth="yes"/>
      <point x="182" y="549"/>
      <point x="175" y="536"/>
    </contour>
  </outline>
</glyph>
<glyph name="parenleft" format="2">
  <advance width="354"/>
  <unicode hex="0028"/>
  <outline>
    <contour>
      <point x="274" y="0" type="curve" smooth="yes"/>
      <point x="286" y="0" type="line" smooth="yes"/>
      <point x="320" y="0"/>
      <point x="331" y="11"/>
      <point x="331" y="46" type="curve" smooth="yes"/>
      <point x="331" y="114" type="line" smooth="yes"/>
      <point x="331" y="149"/>
      <point x="320" y="160"/>
      <point x="286" y="160" type="curve" smooth="yes"/>
      <point x="274" y="160" type="line" smooth="yes"/>
      <point x="229" y="160"/>
      <point x="206" y="177"/>
      <point x="206" y="389" type="curve" smooth="yes"/>
      <point x="206" y="411" type="line" smooth="yes"/>
      <point x="206" y="606"/>
      <point x="229" y="640"/>
      <point x="274" y="640" type="curve" smooth="yes"/>
      <point x="286" y="640" type="line" smooth="yes"/>
      <point x="320" y="640"/>
      <point x="331" y="652"/>
      <point x="331" y="686" type="curve" smooth="yes"/>
      <point x="331" y="754" type="line" smooth="yes"/>
      <point x="331" y="789"/>
      <point x="320" y="800"/>
      <point x="286" y="800" type="curve" smooth="yes"/>
      <point x="274" y="800" type="line" smooth="yes"/>
      <point x="103" y="800"/>
      <point x="23" y="743"/>
      <point x="23" y="411" type="curve" smooth="yes"/>
      <point x="23" y="389" type="line" smooth="yes"/>
      <point x="23" y="57"/>
      <point x="103" y="0"/>
    </contour>
  </outline>
</glyph>
<glyph name="comma" format="2">
  <advance width="217"/>
  <unicode hex="002C"/>
  <outline>
    <contour>
      <point x="80" y="-145" type="curve" smooth="yes"/>
      <point x="151" y="-145"/>
      <point x="194" y="-62"/>
      <point x="194" y="23" type="curve" smooth="yes"/>
      <point x="194" y="126" type="line" smooth="yes"/>
      <point x="194" y="160"/>
      <point x="183" y="171"/>
      <point x="149" y="171" type="curve" smooth="yes"/>
      <point x="69" y="171" type="line" smooth="yes"/>
      <point x="34" y="171"/>
      <point x="23" y="160"/>
      <point x="23" y="126" type="curve" smooth="yes"/>
      <point x="23" y="46" type="line" smooth="yes"/>
      <point x="23" y="11"/>
      <point x="34" y="0"/>
      <point x="69" y="0" type="curve" smooth="yes"/>
      <point x="94" y="0" type="line" smooth="yes"/>
      <point x="106" y="0"/>
      <point x="111" y="-6"/>
      <point x="111" y="-17" type="curve" smooth="yes"/>
      <point x="111" y="-56"/>
      <point x="98" y="-73"/>
      <point x="75" y="-90" type="curve" smooth="yes"/>
      <point x="66" y="-97"/>
      <point x="63" y="-103"/>
      <point x="63" y="-111" type="curve" smooth="yes"/>
      <point x="63" y="-128" type="line" smooth="yes"/>
      <point x="63" y="-139"/>
      <point x="69" y="-145"/>
    </contour>
  </outline>
</glyph>
<glyph name="three" format="2">
  <advance width="526"/>
  <unicode hex="0033"/>
  <outline>
    <contour>
      <point x="251" y="-11" type="curve" smooth="yes"/>
      <point x="411" y="-11"/>
      <point x="514" y="46"/>
      <point x="514" y="217" type="curve" smooth="yes"/>
      <point x="514" y="288"/>
      <point x="493" y="339"/>
      <point x="431" y="382" type="curve" smooth="yes"/>
      <point x="416" y="392"/>
      <point x="413" y="393"/>
      <point x="413" y="399" type="curve" smooth="yes"/>
      <point x="413" y="405"/>
      <point x="417" y="408"/>
      <point x="431" y="418" type="curve" smooth="yes"/>
      <point x="463" y="442"/>
      <point x="503" y="503"/>
      <point x="503" y="583" type="curve" smooth="yes"/>
      <point x="503" y="743"/>
      <point x="423" y="812"/>
      <point x="263" y="812" type="curve" smooth="yes"/>
      <point x="103" y="812"/>
      <point x="23" y="732"/>
      <point x="23" y="572" type="curve" smooth="yes"/>
      <point x="23" y="537"/>
      <point x="34" y="526"/>
      <point x="69" y="526" type="curve" smooth="yes"/>
      <point x="171" y="526" type="line" smooth="yes"/>
      <point x="206" y="526"/>
      <point x="217" y="537"/>
      <point x="217" y="572" type="curve" smooth="yes"/>
      <point x="217" y="583" type="line" smooth="yes"/>
      <point x="217" y="617"/>
      <point x="234" y="640"/>
      <point x="263" y="640" type="curve" smooth="yes"/>
      <point x="291" y="640"/>
      <point x="309" y="617"/>
      <point x="309" y="583" type="curve" smooth="yes"/>
      <point x="309" y="526"/>
      <point x="297" y="469"/>
      <point x="240" y="469" type="curve" smooth="yes"/>
      <point x="229" y="469" type="line" smooth="yes"/>
      <point x="206" y="469"/>
      <point x="194" y="457"/>
      <point x="194" y="434" type="curve" smooth="yes"/>
      <point x="194" y="366" type="line" smooth="yes"/>
      <point x="194" y="343"/>
      <point x="206" y="331"/>
      <point x="229" y="331" type="curve" smooth="yes"/>
      <point x="240" y="331" type="line" smooth="yes"/>
      <point x="297" y="331"/>
      <point x="297" y="274"/>
      <point x="297" y="217" type="curve" smooth="yes"/>
      <point x="297" y="183"/>
      <point x="286" y="160"/>
      <point x="251" y="160" type="curve" smooth="yes"/>
      <point x="217" y="160"/>
      <point x="206" y="183"/>
      <point x="206" y="217" type="curve" smooth="yes"/>
      <point x="206" y="229" type="line" smooth="yes"/>
      <point x="206" y="263"/>
      <point x="194" y="274"/>
      <point x="160" y="274" type="curve" smooth="yes"/>
      <point x="57" y="274" type="line" smooth="yes"/>
      <point x="23" y="274"/>
      <point x="11" y="263"/>
      <point x="11" y="229" type="curve" smooth="yes"/>
      <point x="11" y="69"/>
      <point x="91" y="-11"/>
    </contour>
  </outline>
</glyph>
<glyph name="nine" format="2">
  <advance width="537"/>
  <unicode hex="0039"/>
  <outline>
    <contour>
      <point x="265" y="812" type="curve" smooth="yes"/>
      <point x="105" y="812"/>
      <point x="14" y="732"/>
      <point x="14" y="572" type="curve" smooth="yes"/>
      <point x="14" y="514" type="line" smooth="yes"/>
      <point x="14" y="382"/>
      <point x="90" y="322"/>
      <point x="189" y="322" type="curve" smooth="yes"/>
      <point x="267" y="322"/>
      <point x="285" y="346"/>
      <point x="299" y="346" type="curve" smooth="yes"/>
      <point x="307" y="346"/>
      <point x="311" y="343"/>
      <point x="311" y="328" type="curve" smooth="yes"/>
      <point x="311" y="206" type="line" smooth="yes"/>
      <point x="311" y="171"/>
      <point x="305" y="149"/>
      <point x="271" y="149" type="curve" smooth="yes"/>
      <point x="237" y="149"/>
      <point x="231" y="171"/>
      <point x="231" y="206" type="curve" smooth="yes"/>
      <point x="231" y="240"/>
      <point x="219" y="251"/>
      <point x="185" y="251" type="curve" smooth="yes"/>
      <point x="82" y="251" type="line" smooth="yes"/>
      <point x="48" y="251"/>
      <point x="37" y="240"/>
      <point x="37" y="206" type="curve" smooth="yes"/>
      <point x="37" y="80"/>
      <point x="105" y="-11"/>
      <point x="265" y="-11" type="curve" smooth="yes"/>
      <point x="425" y="-11"/>
      <point x="517" y="69"/>
      <point x="517" y="229" type="curve" smooth="yes"/>
      <point x="517" y="572" type="line" smooth="yes"/>
      <point x="517" y="732"/>
      <point x="425" y="812"/>
    </contour>
    <contour>
      <point x="265" y="640" type="curve" smooth="yes"/>
      <point x="299" y="640"/>
      <point x="311" y="617"/>
      <point x="311" y="583" type="curve" smooth="yes"/>
      <point x="311" y="514" type="line" smooth="yes"/>
      <point x="311" y="480"/>
      <point x="299" y="457"/>
      <point x="265" y="457" type="curve" smooth="yes"/>
      <point x="231" y="457"/>
      <point x="219" y="480"/>
      <point x="219" y="514" type="curve" smooth="yes"/>
      <point x="219" y="583" type="line" smooth="yes"/>
      <point x="219" y="617"/>
      <point x="231" y="640"/>
    </contour>
  </outline>
</glyph>
<glyph name="at" format="2">
  <advance width="686"/>
  <unicode hex="0040"/>
  <outline>
    <contour>
      <point x="474" y="14" type="curve" smooth="yes"/>
      <point x="629" y="14"/>
      <point x="662" y="178"/>
      <point x="662" y="297" type="curve" smooth="yes"/>
      <point x="662" y="416"/>
      <point x="594" y="597"/>
      <point x="353" y="597" type="curve" smooth="yes"/>
      <point x="112" y="597"/>
      <point x="16" y="442"/>
      <point x="16" y="264" type="curve" smooth="yes"/>
      <point x="16" y="17"/>
      <point x="111" y="-67"/>
      <point x="287" y="-67" type="curve" smooth="yes"/>
      <point x="320" y="-67"/>
      <point x="335" y="-53"/>
      <point x="335" y="-31" type="curve" smooth="yes"/>
      <point x="335" y="15" type="line" smooth="yes"/>
      <point x="335" y="38"/>
      <point x="321" y="46"/>
      <point x="288" y="46" type="curve" smooth="yes"/>
      <point x="254" y="46"/>
      <point x="143" y="71"/>
      <point x="145" y="248" type="curve" smooth="yes"/>
      <point x="147" y="425"/>
      <point x="254" y="491"/>
      <point x="352" y="494" type="curve" smooth="yes"/>
      <point x="450" y="496"/>
      <point x="539" y="434"/>
      <point x="539" y="297" type="curve" smooth="yes"/>
      <point x="539" y="186"/>
      <point x="527" y="134"/>
      <point x="499" y="134" type="curve" smooth="yes"/>
      <point x="480" y="134"/>
      <point x="475" y="158"/>
      <point x="473" y="259" type="curve" smooth="yes"/>
      <point x="472" y="301"/>
      <point x="474" y="354"/>
      <point x="473" y="395" type="curve" smooth="yes"/>
      <point x="473" y="409"/>
      <point x="469" y="431"/>
      <point x="451" y="431" type="curve" smooth="yes"/>
      <point x="418" y="431" type="line" smooth="yes"/>
      <point x="402" y="431"/>
      <point x="391" y="411"/>
      <point x="383" y="411" type="curve" smooth="yes"/>
      <point x="370" y="411"/>
      <point x="362" y="422"/>
      <point x="334" y="422" type="curve" smooth="yes"/>
      <point x="247" y="423"/>
      <point x="181" y="390"/>
      <point x="181" y="258" type="curve" smooth="yes"/>
      <point x="181" y="127"/>
      <point x="232" y="74"/>
      <point x="296" y="74" type="curve" smooth="yes"/>
      <point x="347" y="74"/>
      <point x="355" y="88"/>
      <point x="370" y="88" type="curve" smooth="yes"/>
      <point x="385" y="88"/>
      <point x="397" y="14"/>
    </contour>
    <contour>
      <point x="349" y="160" type="curve" smooth="yes"/>
      <point x="337" y="160" type="line" smooth="yes"/>
      <point x="303" y="160"/>
      <point x="291" y="171"/>
      <point x="291" y="217" type="curve" smooth="yes"/>
      <point x="291" y="274" type="line" smooth="yes"/>
      <point x="291" y="320"/>
      <point x="303" y="331"/>
      <point x="337" y="331" type="curve" smooth="yes"/>
      <point x="349" y="331" type="line" smooth="yes"/>
      <point x="366" y="331"/>
      <point x="371" y="326"/>
      <point x="371" y="309" type="curve" smooth="yes"/>
      <point x="371" y="183" type="line" smooth="yes"/>
      <point x="371" y="166"/>
      <point x="366" y="160"/>
    </contour>
  </outline>
</glyph>
<glyph name="B" format="2">
  <advance width="663"/>
  <unicode hex="0042"/>
  <outline>
    <contour>
      <point x="79" y="0" type="curve" smooth="yes"/>
      <point x="423" y="0" type="line" smooth="yes"/>
      <point x="572" y="0"/>
      <point x="640" y="80"/>
      <point x="640" y="217" type="curve" smooth="yes"/>
      <point x="640" y="229" type="line" smooth="yes"/>
      <point x="640" y="331"/>
      <point x="578" y="385"/>
      <point x="549" y="400" type="curve" smooth="yes"/>
      <point x="543" y="403"/>
      <point x="537" y="406"/>
      <point x="537" y="411" type="curve" smooth="yes"/>
      <point x="537" y="417"/>
      <point x="542" y="418"/>
      <point x="549" y="423" type="curve" smooth="yes"/>
      <point x="575" y="440"/>
      <point x="617" y="491"/>
      <point x="617" y="572" type="curve" smooth="yes"/>
      <point x="617" y="583" type="line" smooth="yes"/>
      <point x="617" y="732"/>
      <point x="526" y="800"/>
      <point x="377" y="800" type="curve" smooth="yes"/>
      <point x="80" y="800" type="line" smooth="yes"/>
      <point x="46" y="800"/>
      <point x="34" y="789"/>
      <point x="34" y="754" type="curve" smooth="yes"/>
      <point x="34" y="46" type="line" smooth="yes"/>
      <point x="34" y="11"/>
      <point x="45" y="0"/>
    </contour>
    <contour>
      <point x="263" y="160" type="line" smooth="yes"/>
      <point x="246" y="160"/>
      <point x="240" y="166"/>
      <point x="240" y="183" type="curve" smooth="yes"/>
      <point x="240" y="309" type="line" smooth="yes"/>
      <point x="240" y="326"/>
      <point x="246" y="331"/>
      <point x="263" y="331" type="curve" smooth="yes"/>
      <point x="354" y="331" type="line" smooth="yes"/>
      <point x="400" y="331"/>
      <point x="423" y="309"/>
      <point x="423" y="251" type="curve" smooth="yes"/>
      <point x="423" y="240" type="line" smooth="yes"/>
      <point x="423" y="183"/>
      <point x="400" y="160"/>
      <point x="354" y="160" type="curve" smooth="yes"/>
    </contour>
    <contour>
      <point x="263" y="491" type="line" smooth="yes"/>
      <point x="246" y="491"/>
      <point x="240" y="497"/>
      <point x="240" y="514" type="curve" smooth="yes"/>
      <point x="240" y="617" type="line" smooth="yes"/>
      <point x="240" y="634"/>
      <point x="246" y="640"/>
      <point x="263" y="640" type="curve" smooth="yes"/>
      <point x="354" y="640" type="line" smooth="yes"/>
      <point x="400" y="640"/>
      <point x="423" y="617"/>
      <point x="423" y="572" type="curve" smooth="yes"/>
      <point x="423" y="560" type="line" smooth="yes"/>
      <point x="423" y="514"/>
      <point x="400" y="491"/>
      <point x="354" y="491" type="curve" smooth="yes"/>
    </contour>
  </outline>
</glyph>
<glyph name="D" format="2">
  <advance width="663"/>
  <unicode hex="0044"/>
  <anchor x="389" y="800" name="top"/>
  <outline>
    <contour>
      <point x="80" y="0" type="curve" smooth="yes"/>
      <point x="366" y="0" type="line" smooth="yes"/>
      <point x="549" y="0"/>
      <point x="640" y="80"/>
      <point x="640" y="274" type="curve" smooth="yes"/>
      <point x="640" y="526" type="line" smooth="yes"/>
      <point x="640" y="720"/>
      <point x="526" y="800"/>
      <point x="343" y="800" type="curve" smooth="yes"/>
      <point x="80" y="800" type="line" smooth="yes"/>
      <point x="46" y="800"/>
      <point x="34" y="789"/>
      <point x="34" y="754" type="curve" smooth="yes"/>
      <point x="34" y="46" type="line" smooth="yes"/>
      <point x="34" y="11"/>
      <point x="46" y="0"/>
    </contour>
    <contour>
      <point x="263" y="171" type="line" smooth="yes"/>
      <point x="246" y="171"/>
      <point x="240" y="177"/>
      <point x="240" y="194" type="curve" smooth="yes"/>
      <point x="240" y="606" type="line" smooth="yes"/>
      <point x="240" y="623"/>
      <point x="246" y="629"/>
      <point x="263" y="629" type="curve" smooth="yes"/>
      <point x="331" y="629" type="line" smooth="yes"/>
      <point x="400" y="629"/>
      <point x="434" y="594"/>
      <point x="434" y="514" type="curve" smooth="yes"/>
      <point x="434" y="286" type="line" smooth="yes"/>
      <point x="434" y="206"/>
      <point x="400" y="171"/>
      <point x="331" y="171" type="curve" smooth="yes"/>
    </contour>
  </outline>
</glyph>
<glyph name="G" format="2">
  <advance width="640"/>
  <unicode hex="0047"/>
  <anchor x="269" y="0" name="bottom"/>
  <anchor x="274" y="800" name="top"/>
  <outline>
    <contour>
      <point x="305" y="-11" type="curve" smooth="yes"/>
      <point x="431" y="-11"/>
      <point x="470" y="51"/>
      <point x="497" y="51" type="curve" smooth="yes"/>
      <point x="520" y="51"/>
      <point x="543" y="0"/>
      <point x="578" y="0" type="curve" smooth="yes"/>
      <point x="606" y="0"/>
      <point x="617" y="11"/>
      <point x="617" y="46" type="curve" smooth="yes"/>
      <point x="617" y="343" type="line" smooth="yes"/>
      <point x="617" y="377"/>
      <point x="605" y="389"/>
      <point x="572" y="389" type="curve" smooth="yes"/>
      <point x="400" y="389" type="line" smooth="yes"/>
      <point x="366" y="389"/>
      <point x="354" y="376"/>
      <point x="354" y="343" type="curve" smooth="yes"/>
      <point x="354" y="297" type="line" smooth="yes"/>
      <point x="354" y="264"/>
      <point x="366" y="251"/>
      <point x="400" y="251" type="curve" smooth="yes"/>
      <point x="423" y="251" type="line" smooth="yes"/>
      <point x="440" y="251"/>
      <point x="446" y="246"/>
      <point x="446" y="229" type="curve" smooth="yes"/>
      <point x="446" y="183"/>
      <point x="423" y="160"/>
      <point x="331" y="160" type="curve" smooth="yes"/>
      <point x="251" y="160"/>
      <point x="229" y="206"/>
      <point x="229" y="286" type="curve" smooth="yes"/>
      <point x="229" y="514" type="line" smooth="yes"/>
      <point x="229" y="594"/>
      <point x="251" y="640"/>
      <point x="320" y="640" type="curve" smooth="yes"/>
      <point x="400" y="640"/>
      <point x="423" y="594"/>
      <point x="423" y="514" type="curve" smooth="yes"/>
      <point x="423" y="503" type="line" smooth="yes"/>
      <point x="423" y="469"/>
      <point x="434" y="457"/>
      <point x="469" y="457" type="curve" smooth="yes"/>
      <point x="572" y="457" type="line" smooth="yes"/>
      <point x="606" y="457"/>
      <point x="617" y="469"/>
      <point x="617" y="503" type="curve" smooth="yes"/>
      <point x="617" y="537" type="line" smooth="yes"/>
      <point x="617" y="720"/>
      <point x="537" y="812"/>
      <point x="320" y="812" type="curve" smooth="yes"/>
      <point x="103" y="812"/>
      <point x="23" y="720"/>
      <point x="23" y="503" type="curve" smooth="yes"/>
      <point x="23" y="297" type="line" smooth="yes"/>
      <point x="23" y="80"/>
      <point x="111" y="-11"/>
    </contour>
  </outline>
</glyph>
<glyph name="H" format="2">
  <advance width="663"/>
  <unicode hex="0048"/>
  <outline>
    <contour>
      <point x="80" y="0" type="curve" smooth="yes"/>
      <point x="194" y="0" type="line" smooth="yes"/>
      <point x="229" y="0"/>
      <point x="240" y="11"/>
      <point x="240" y="46" type="curve" smooth="yes"/>
      <point x="240" y="320" type="line" smooth="yes"/>
      <point x="240" y="337"/>
      <point x="246" y="343"/>
      <point x="263" y="343" type="curve" smooth="yes"/>
      <point x="400" y="343" type="line" smooth="yes"/>
      <point x="417" y="343"/>
      <point x="423" y="337"/>
      <point x="423" y="320" type="curve" smooth="yes"/>
      <point x="423" y="46" type="line" smooth="yes"/>
      <point x="423" y="11"/>
      <point x="434" y="0"/>
      <point x="469" y="0" type="curve" smooth="yes"/>
      <point x="583" y="0" type="line" smooth="yes"/>
      <point x="617" y="0"/>
      <point x="629" y="11"/>
      <point x="629" y="46" type="curve" smooth="yes"/>
      <point x="629" y="754" type="line" smooth="yes"/>
      <point x="629" y="789"/>
      <point x="617" y="800"/>
      <point x="583" y="800" type="curve" smooth="yes"/>
      <point x="469" y="800" type="line" smooth="yes"/>
      <point x="434" y="800"/>
      <point x="423" y="789"/>
      <point x="423" y="754" type="curve" smooth="yes"/>
      <point x="423" y="537" type="line" smooth="yes"/>
      <point x="423" y="520"/>
      <point x="417" y="514"/>
      <point x="400" y="514" type="curve" smooth="yes"/>
      <point x="263" y="514" type="line" smooth="yes"/>
      <point x="246" y="514"/>
      <point x="240" y="520"/>
      <point x="240" y="537" type="curve" smooth="yes"/>
      <point x="240" y="754" type="line" smooth="yes"/>
      <point x="240" y="789"/>
      <point x="229" y="800"/>
      <point x="194" y="800" type="curve" smooth="yes"/>
      <point x="80" y="800" type="line" smooth="yes"/>
      <point x="46" y="800"/>
      <point x="34" y="789"/>
      <point x="34" y="754" type="curve" smooth="yes"/>
      <point x="34" y="46" type="line" smooth="yes"/>
      <point x="34" y="11"/>
      <point x="46" y="0"/>
    </contour>
  </outline>
</glyph>
<glyph name="K" format="2">
  <advance width="663"/>
  <unicode hex="004B"/>
  <anchor x="269" y="0" name="bottom"/>
  <outline>
    <contour>
      <point x="80" y="-1" type="curve" smooth="yes"/>
      <point x="194" y="0" type="line" smooth="yes"/>
      <point x="229" y="0"/>
      <point x="240" y="11"/>
      <point x="240" y="46" type="curve" smooth="yes"/>
      <point x="240" y="354" type="line" smooth="yes"/>
      <point x="240" y="362"/>
      <point x="243" y="366"/>
      <point x="251" y="366" type="curve" smooth="yes"/>
      <point x="257" y="366"/>
      <point x="259" y="360"/>
      <point x="269" y="343" type="curve" smooth="yes"/>
      <point x="430" y="46" type="line" smooth="yes"/>
      <point x="446" y="16"/>
      <point x="453" y="0"/>
      <point x="487" y="0" type="curve" smooth="yes"/>
      <point x="593" y="0" type="line" smooth="yes"/>
      <point x="628" y="0"/>
      <point x="639" y="11"/>
      <point x="639" y="46" type="curve" smooth="yes"/>
      <point x="639" y="69"/>
      <point x="642" y="94"/>
      <point x="624" y="120" type="curve" smooth="yes"/>
      <point x="439" y="395" type="line" smooth="yes"/>
      <point x="425" y="416"/>
      <point x="422" y="435"/>
      <point x="422" y="447" type="curve" smooth="yes"/>
      <point x="422" y="458"/>
      <point x="426" y="483"/>
      <point x="450" y="510" type="curve" smooth="yes"/>
      <point x="617" y="689" type="line" smooth="yes"/>
      <point x="631" y="703"/>
      <point x="640" y="750"/>
      <point x="640" y="766" type="curve" smooth="yes"/>
      <point x="640" y="789"/>
      <point x="629" y="800"/>
      <point x="594" y="800" type="curve" smooth="yes"/>
      <point x="487" y="800" type="line" smooth="yes"/>
      <point x="456" y="800"/>
      <point x="451" y="788"/>
      <point x="430" y="754" type="curve" smooth="yes"/>
      <point x="269" y="514" type="line" smooth="yes"/>
      <point x="261" y="503"/>
      <point x="257" y="491"/>
      <point x="251" y="491" type="curve" smooth="yes"/>
      <point x="243" y="491"/>
      <point x="240" y="495"/>
      <point x="240" y="503" type="curve" smooth="yes"/>
      <point x="240" y="754" type="line" smooth="yes"/>
      <point x="240" y="789"/>
      <point x="229" y="800"/>
      <point x="194" y="800" type="curve" smooth="yes"/>
      <point x="80" y="800" type="line" smooth="yes"/>
      <point x="46" y="800"/>
      <point x="34" y="789"/>
      <point x="34" y="754" type="curve" smooth="yes"/>
      <point x="34" y="46" type="line" smooth="yes"/>
      <point x="34" y="11"/>
      <point x="46" y="-1"/>
    </contour>
  </outline>
</glyph>
<glyph name="N" format="2">
  <advance width="686"/>
  <unicode hex="004E"/>
  <anchor x="331" y="0" name="bottom"/>
  <anchor x="343" y="800" name="top"/>
  <outline>
    <contour>
      <point x="80" y="0" type="curve" smooth="yes"/>
      <point x="194" y="0" type="line" smooth="yes"/>
      <point x="229" y="0"/>
      <point x="240" y="11"/>
      <point x="240" y="46" type="curve" smooth="yes"/>
      <point x="240" y="423" type="line" smooth="yes"/>
      <point x="240" y="441"/>
      <point x="247" y="446"/>
      <point x="255" y="446" type="curve" smooth="yes"/>
      <point x="264" y="446"/>
      <point x="272" y="438"/>
      <point x="278" y="423" type="curve" smooth="yes"/>
      <point x="415" y="46" type="line" smooth="yes"/>
      <point x="427" y="10"/>
      <point x="439" y="0"/>
      <point x="466" y="0" type="curve" smooth="yes"/>
      <point x="606" y="0" type="line" smooth="yes"/>
      <point x="640" y="0"/>
      <point x="652" y="11"/>
      <point x="652" y="46" type="curve" smooth="yes"/>
      <point x="652" y="754" type="line" smooth="yes"/>
      <point x="652" y="789"/>
      <point x="640" y="800"/>
      <point x="606" y="800" type="curve" smooth="yes"/>
      <point x="491" y="800" type="line" smooth="yes"/>
      <point x="457" y="800"/>
      <point x="446" y="789"/>
      <point x="446" y="754" type="curve" smooth="yes"/>
      <point x="446" y="377" type="line" smooth="yes"/>
      <point x="446" y="361"/>
      <point x="441" y="354"/>
      <point x="431" y="354" type="curve" smooth="yes"/>
      <point x="419" y="354"/>
      <point x="413" y="365"/>
      <point x="408" y="377" type="curve" smooth="yes"/>
      <point x="271" y="754" type="line" smooth="yes"/>
      <point x="257" y="792"/>
      <point x="246" y="800"/>
      <point x="217" y="800" type="curve" smooth="yes"/>
      <point x="80" y="800" type="line" smooth="yes"/>
      <point x="46" y="800"/>
      <point x="34" y="789"/>
      <point x="34" y="754" type="curve" smooth="yes"/>
      <point x="34" y="46" type="line" smooth="yes"/>
      <point x="34" y="11"/>
      <point x="46" y="0"/>
    </contour>
  </outline>
</glyph>
<glyph name="P" format="2">
  <advance width="537"/>
  <unicode hex="0050"/>
  <outline>
    <contour>
      <point x="80" y="0" type="curve" smooth="yes"/>
      <point x="194" y="0" type="line" smooth="yes"/>
      <point x="229" y="0"/>
      <point x="240" y="11"/>
      <point x="240" y="46" type="curve" smooth="yes"/>
      <point x="240" y="274" type="line" smooth="yes"/>
      <point x="240" y="291"/>
      <point x="246" y="297"/>
      <point x="263" y="297" type="curve" smooth="yes"/>
      <point x="297" y="297" type="line" smooth="yes"/>
      <point x="446" y="297"/>
      <point x="526" y="354"/>
      <point x="526" y="503" type="curve" smooth="yes"/>
      <point x="526" y="583" type="line" smooth="yes"/>
      <point x="526" y="732"/>
      <point x="446" y="800"/>
      <point x="297" y="800" type="curve" smooth="yes"/>
      <point x="80" y="800" type="line" smooth="yes"/>
      <point x="46" y="800"/>
      <point x="34" y="789"/>
      <point x="34" y="754" type="curve" smooth="yes"/>
      <point x="34" y="46" type="line" smooth="yes"/>
      <point x="34" y="11"/>
      <point x="46" y="0"/>
    </contour>
    <contour>
      <point x="263" y="457" type="line" smooth="yes"/>
      <point x="246" y="457"/>
      <point x="240" y="463"/>
      <point x="240" y="480" type="curve" smooth="yes"/>
      <point x="240" y="606" type="line" smooth="yes"/>
      <point x="240" y="623"/>
      <point x="246" y="629"/>
      <point x="263" y="629" type="curve" smooth="yes"/>
      <point x="286" y="629" type="line" smooth="yes"/>
      <point x="320" y="629"/>
      <point x="331" y="617"/>
      <point x="331" y="572" type="curve" smooth="yes"/>
      <point x="331" y="514" type="line" smooth="yes"/>
      <point x="331" y="469"/>
      <point x="320" y="457"/>
      <point x="286" y="457" type="curve" smooth="yes"/>
    </contour>
  </outline>
</glyph>
<glyph name="S" format="2">
  <advance width="652"/>
  <unicode hex="0053"/>
  <anchor x="323" y="0" name="bottom"/>
  <anchor x="329" y="800" name="top"/>
  <outline>
    <contour>
      <point x="326" y="-11" type="curve" smooth="yes"/>
      <point x="486" y="-11"/>
      <point x="629" y="46"/>
      <point x="629" y="206" type="curve" smooth="yes"/>
      <point x="629" y="319"/>
      <point x="601" y="387"/>
      <point x="469" y="437" type="curve" smooth="yes"/>
      <point x="339" y="485" type="line" smooth="yes"/>
      <point x="254" y="517"/>
      <point x="240" y="530"/>
      <point x="240" y="568" type="curve" smooth="yes"/>
      <point x="240" y="600"/>
      <point x="264" y="640"/>
      <point x="327" y="640" type="curve" smooth="yes"/>
      <point x="390" y="640"/>
      <point x="414" y="615"/>
      <point x="414" y="572" type="curve" smooth="yes"/>
      <point x="414" y="560" type="line" smooth="yes"/>
      <point x="414" y="526"/>
      <point x="425" y="514"/>
      <point x="459" y="514" type="curve" smooth="yes"/>
      <point x="574" y="514" type="line" smooth="yes"/>
      <point x="608" y="514"/>
      <point x="620" y="526"/>
      <point x="620" y="560" type="curve" smooth="yes"/>
      <point x="620" y="709"/>
      <point x="501" y="812"/>
      <point x="328" y="812" type="curve" smooth="yes"/>
      <point x="168" y="812"/>
      <point x="34" y="720"/>
      <point x="34" y="572" type="curve" smooth="yes"/>
      <point x="34" y="435"/>
      <point x="110" y="390"/>
      <point x="209" y="349" type="curve" smooth="yes"/>
      <point x="386" y="275" type="line" smooth="yes"/>
      <point x="416" y="263"/>
      <point x="429" y="245"/>
      <point x="429" y="218" type="curve" smooth="yes"/>
      <point x="429" y="174"/>
      <point x="394" y="160"/>
      <point x="326" y="160" type="curve" smooth="yes"/>
      <point x="257" y="160"/>
      <point x="229" y="185"/>
      <point x="229" y="238" type="curve" smooth="yes"/>
      <point x="229" y="240" type="line" smooth="yes"/>
      <point x="229" y="274"/>
      <point x="217" y="286"/>
      <point x="183" y="286" type="curve" smooth="yes"/>
      <point x="69" y="286" type="line" smooth="yes"/>
      <point x="34" y="286"/>
      <point x="23" y="274"/>
      <point x="23" y="240" type="curve" smooth="yes"/>
      <point x="23" y="69"/>
      <point x="143" y="-11"/>
    </contour>
  </outline>
</glyph>
<glyph name="T" format="2">
  <advance width="594"/>
  <unicode hex="0054"/>
  <anchor x="297" y="0" name="bottom"/>
  <anchor x="297" y="800" name="top"/>
  <outline>
    <contour>
      <point x="240" y="0" type="curve" smooth="yes"/>
      <point x="354" y="0" type="line" smooth="yes"/>
      <point x="389" y="0"/>
      <point x="400" y="11"/>
      <point x="400" y="46" type="curve" smooth="yes"/>
      <point x="400" y="606" type="line" smooth="yes"/>
      <point x="400" y="623"/>
      <point x="406" y="629"/>
      <point x="423" y="629" type="curve" smooth="yes"/>
      <point x="537" y="629" type="line" smooth="yes"/>
      <point x="572" y="629"/>
      <point x="583" y="640"/>
      <point x="583" y="674" type="curve" smooth="yes"/>
      <point x="583" y="754" type="line" smooth="yes"/>
      <point x="583" y="789"/>
      <point x="572" y="800"/>
      <point x="537" y="800" type="curve" smooth="yes"/>
      <point x="57" y="800" type="line" smooth="yes"/>
      <point x="22" y="800"/>
      <point x="11" y="789"/>
      <point x="11" y="754" type="curve" smooth="yes"/>
      <point x="11" y="674" type="line" smooth="yes"/>
      <point x="11" y="646"/>
      <point x="23" y="629"/>
      <point x="57" y="629" type="curve" smooth="yes"/>
      <point x="171" y="629" type="line" smooth="yes"/>
      <point x="189" y="629"/>
      <point x="194" y="623"/>
      <point x="194" y="606" type="curve" smooth="yes"/>
      <point x="194" y="46" type="line" smooth="yes"/>
      <point x="194" y="11"/>
      <point x="206" y="0"/>
    </contour>
  </outline>
</glyph>
<glyph name="U" format="2">
  <advance width="647"/>
  <unicode hex="0055"/>
  <anchor x="323" y="800" name="top"/>
  <outline>
    <contour>
      <point x="323" y="-11" type="curve" smooth="yes"/>
      <point x="529" y="-11"/>
      <point x="613" y="103"/>
      <point x="613" y="263" type="curve" smooth="yes"/>
      <point x="613" y="754" type="line" smooth="yes"/>
      <point x="613" y="789"/>
      <point x="601" y="800"/>
      <point x="567" y="800" type="curve" smooth="yes"/>
      <point x="455" y="800" type="line" smooth="yes"/>
      <point x="421" y="800"/>
      <point x="409" y="789"/>
      <point x="409" y="754" type="curve" smooth="yes"/>
      <point x="409" y="251" type="line" smooth="yes"/>
      <point x="409" y="183"/>
      <point x="381" y="160"/>
      <point x="323" y="160" type="curve" smooth="yes"/>
      <point x="266" y="160"/>
      <point x="238" y="183"/>
      <point x="238" y="251" type="curve" smooth="yes"/>
      <point x="238" y="754" type="line" smooth="yes"/>
      <point x="238" y="789"/>
      <point x="226" y="800"/>
      <point x="192" y="800" type="curve" smooth="yes"/>
      <point x="80" y="800" type="line" smooth="yes"/>
      <point x="46" y="800"/>
      <point x="34" y="789"/>
      <point x="34" y="754" type="curve" smooth="yes"/>
      <point x="34" y="263" type="line" smooth="yes"/>
      <point x="34" y="103"/>
      <point x="118" y="-11"/>
    </contour>
  </outline>
</glyph>
<glyph name="W" format="2">
  <advance width="869"/>
  <unicode hex="0057"/>
  <anchor x="439" y="800" name="top"/>
  <outline>
    <contour>
      <point x="177" y="0" type="curve" smooth="yes"/>
      <point x="322" y="0" type="line" smooth="yes"/>
      <point x="351" y="0"/>
      <point x="363" y="17"/>
      <point x="368" y="46" type="curve" smooth="yes"/>
      <point x="423" y="425" type="line" smooth="yes"/>
      <point x="425" y="439"/>
      <point x="429" y="446"/>
      <point x="434" y="446" type="curve" smooth="yes"/>
      <point x="440" y="446"/>
      <point x="443" y="439"/>
      <point x="446" y="425" type="curve" smooth="yes"/>
      <point x="501" y="46" type="line" smooth="yes"/>
      <point x="505" y="17"/>
      <point x="518" y="0"/>
      <point x="546" y="0" type="curve" smooth="yes"/>
      <point x="692" y="0" type="line" smooth="yes"/>
      <point x="720" y="0"/>
      <point x="732" y="11"/>
      <point x="737" y="46" type="curve" smooth="yes"/>
      <point x="848" y="702" type="line" smooth="yes"/>
      <point x="855" y="740"/>
      <point x="857" y="754"/>
      <point x="857" y="766" type="curve" smooth="yes"/>
      <point x="857" y="789"/>
      <point x="846" y="800"/>
      <point x="823" y="800" type="curve" smooth="yes"/>
      <point x="697" y="800" type="line" smooth="yes"/>
      <point x="663" y="800"/>
      <point x="657" y="789"/>
      <point x="652" y="754" type="curve" smooth="yes"/>
      <point x="589" y="377" type="line" smooth="yes"/>
      <point x="586" y="361"/>
      <point x="583" y="354"/>
      <point x="572" y="354" type="curve" smooth="yes"/>
      <point x="560" y="354"/>
      <point x="557" y="361"/>
      <point x="554" y="377" type="curve" smooth="yes"/>
      <point x="503" y="754" type="line" smooth="yes"/>
      <point x="498" y="786"/>
      <point x="489" y="800"/>
      <point x="463" y="800" type="curve" smooth="yes"/>
      <point x="417" y="800" type="line" smooth="yes"/>
      <point x="391" y="800"/>
      <point x="382" y="786"/>
      <point x="377" y="754" type="curve" smooth="yes"/>
      <point x="326" y="377" type="line" smooth="yes"/>
      <point x="323" y="361"/>
      <point x="320" y="354"/>
      <point x="309" y="354" type="curve" smooth="yes"/>
      <point x="297" y="354"/>
      <point x="295" y="360"/>
      <point x="291" y="377" type="curve" smooth="yes"/>
      <point x="229" y="754" type="line" smooth="yes"/>
      <point x="223" y="790"/>
      <point x="217" y="800"/>
      <point x="183" y="800" type="curve" smooth="yes"/>
      <point x="46" y="800" type="line" smooth="yes"/>
      <point x="23" y="800"/>
      <point x="11" y="789"/>
      <point x="11" y="766" type="curve" smooth="yes"/>
      <point x="11" y="754"/>
      <point x="14" y="740"/>
      <point x="21" y="702" type="curve" smooth="yes"/>
      <point x="131" y="46" type="line" smooth="yes"/>
      <point x="137" y="11"/>
      <point x="149" y="0"/>
    </contour>
  </outline>
</glyph>
<glyph name="bar" format="2">
  <advance width="206"/>
  <unicode hex="007C"/>
  <outline>
    <contour>
      <point x="69" y="0" type="curve" smooth="yes"/>
      <point x="137" y="0" type="line" smooth="yes"/>
      <point x="171" y="0"/>
      <point x="183" y="11"/>
      <point x="183" y="46" type="curve" smooth="yes"/>
      <point x="183" y="754" type="line" smooth="yes"/>
      <point x="183" y="789"/>
      <point x="171" y="800"/>
      <point x="137" y="800" type="curve" smooth="yes"/>
      <point x="69" y="800" type="line" smooth="yes"/>
      <point x="34" y="800"/>
      <point x="23" y="789"/>
      <point x="23" y="754" type="curve" smooth="yes"/>
      <point x="23" y="46" type="line" smooth="yes"/>
      <point x="23" y="11"/>
      <point x="34" y="0"/>
    </contour>
  </outline>
</glyph>
<glyph name="braceright" format="2">
  <advance width="366"/>
  <unicode hex="007D"/>
  <outline>
    <contour>
      <point x="80" y="0" type="line" smooth="yes"/>
      <point x="251" y="0"/>
      <point x="274" y="57"/>
      <point x="274" y="229" type="curve" smooth="yes"/>
      <point x="274" y="286" type="line" smooth="yes"/>
      <point x="274" y="320"/>
      <point x="297" y="343"/>
      <point x="331" y="343" type="curve" smooth="yes"/>
      <point x="349" y="343"/>
      <point x="354" y="349"/>
      <point x="354" y="366" type="curve" smooth="yes"/>
      <point x="354" y="400" type="line"/>
      <point x="354" y="434" type="line" smooth="yes"/>
      <point x="354" y="451"/>
      <point x="349" y="457"/>
      <point x="331" y="457" type="curve" smooth="yes"/>
      <point x="297" y="457"/>
      <point x="274" y="480"/>
      <point x="274" y="514" type="curve" smooth="yes"/>
      <point x="274" y="572" type="line" smooth="yes"/>
      <point x="274" y="743"/>
      <point x="251" y="800"/>
      <point x="80" y="800" type="curve" smooth="yes"/>
      <point x="69" y="800" type="line" smooth="yes"/>
      <point x="34" y="800"/>
      <point x="23" y="789"/>
      <point x="23" y="754" type="curve" smooth="yes"/>
      <point x="23" y="686" type="line" smooth="yes"/>
      <point x="23" y="652"/>
      <point x="34" y="640"/>
      <point x="69" y="640" type="curve" smooth="yes"/>
      <point x="80" y="640" type="line" smooth="yes"/>
      <point x="114" y="640"/>
      <point x="126" y="606"/>
      <point x="126" y="572" type="curve" smooth="yes"/>
      <point x="126" y="469" type="line" smooth="yes"/>
      <point x="126" y="446"/>
      <point x="135" y="423"/>
      <point x="171" y="411" type="curve" smooth="yes"/>
      <point x="175" y="410"/>
      <point x="183" y="407"/>
      <point x="183" y="400" type="curve" smooth="yes"/>
      <point x="183" y="393"/>
      <point x="177" y="390"/>
      <point x="171" y="389" type="curve" smooth="yes"/>
      <point x="135" y="377"/>
      <point x="126" y="354"/>
      <point x="126" y="331" type="curve" smooth="yes"/>
      <point x="126" y="229" type="line" smooth="yes"/>
      <point x="126" y="177"/>
      <point x="114" y="160"/>
      <point x="80" y="160" type="curve" smooth="yes"/>
      <point x="69" y="160" type="line" smooth="yes"/>
      <point x="34" y="160"/>
      <point x="23" y="149"/>
      <point x="23" y="114" type="curve" smooth="yes"/>
      <point x="23" y="46" type="line" smooth="yes"/>
      <point x="23" y="11"/>
      <point x="34" y="0"/>
      <point x="69" y="0" type="curve" smooth="yes"/>
    </contour>
  </outline>
</glyph>
<glyph name="cent" format="2">
  <advance width="686"/>
  <unicode hex="00A2"/>
  <outline>
    <contour>
      <point x="351" y="57" type="curve" smooth="yes"/>
      <point x="545" y="57"/>
      <point x="652" y="149"/>
      <point x="652" y="251" type="curve" smooth="yes"/>
      <point x="652" y="286" type="line" smooth="yes"/>
      <point x="652" y="320"/>
      <point x="640" y="331"/>
      <point x="606" y="331" type="curve" smooth="yes"/>
      <point x="526" y="331" type="line" smooth="yes"/>
      <point x="491" y="331"/>
      <point x="480" y="320"/>
      <point x="480" y="286" type="curve" smooth="yes"/>
      <point x="480" y="274" type="line" smooth="yes"/>
      <point x="480" y="240"/>
      <point x="423" y="229"/>
      <point x="343" y="229" type="curve" smooth="yes"/>
      <point x="274" y="229"/>
      <point x="217" y="286"/>
      <point x="217" y="377" type="curve" smooth="yes"/>
      <point x="217" y="423" type="line" smooth="yes"/>
      <point x="217" y="514"/>
      <point x="274" y="572"/>
      <point x="343" y="572" type="curve" smooth="yes"/>
      <point x="423" y="572"/>
      <point x="480" y="560"/>
      <point x="480" y="526" type="curve" smooth="yes"/>
      <point x="480" y="514" type="line" smooth="yes"/>
      <point x="480" y="480"/>
      <point x="491" y="469"/>
      <point x="526" y="469" type="curve" smooth="yes"/>
      <point x="606" y="469" type="line" smooth="yes"/>
      <point x="640" y="469"/>
      <point x="652" y="480"/>
      <point x="652" y="514" type="curve" smooth="yes"/>
      <point x="652" y="549" type="line" smooth="yes"/>
      <point x="652" y="674"/>
      <point x="537" y="743"/>
      <point x="343" y="743" type="curve" smooth="yes"/>
      <point x="171" y="743"/>
      <point x="34" y="640"/>
      <point x="34" y="411" type="curve" smooth="yes"/>
      <point x="34" y="389" type="line" smooth="yes"/>
      <point x="34" y="160"/>
      <point x="179" y="57"/>
    </contour>
    <contour>
      <point x="345" y="0" type="curve" smooth="yes"/>
      <point x="347" y="0" type="line" smooth="yes"/>
      <point x="382" y="0"/>
      <point x="393" y="11"/>
      <point x="393" y="46" type="curve" smooth="yes"/>
      <point x="393" y="754" type="line" smooth="yes"/>
      <point x="393" y="789"/>
      <point x="382" y="800"/>
      <point x="347" y="800" type="curve" smooth="yes"/>
      <point x="345" y="800" type="line" smooth="yes"/>
      <point x="311" y="800"/>
      <point x="299" y="789"/>
      <point x="299" y="754" type="curve" smooth="yes"/>
      <point x="299" y="46" type="line" smooth="yes"/>
      <point x="299" y="11"/>
      <point x="311" y="0"/>
    </contour>
  </outline>
</glyph>
<glyph name="periodcentered" format="2">
  <advance width="297"/>
  <unicode hex="00B7"/>
  <outline>
    <contour>
      <point x="91" y="286" type="curve" smooth="yes"/>
      <point x="206" y="286" type="line" smooth="yes"/>
      <point x="240" y="286"/>
      <point x="251" y="297"/>
      <point x="251" y="331" type="curve" smooth="yes"/>
      <point x="251" y="434" type="line" smooth="yes"/>
      <point x="251" y="469"/>
      <point x="240" y="480"/>
      <point x="206" y="480" type="curve" smooth="yes"/>
      <point x="91" y="480" type="line" smooth="yes"/>
      <point x="57" y="480"/>
      <point x="46" y="469"/>
      <point x="46" y="434" type="curve" smooth="yes"/>
      <point x="46" y="331" type="line" smooth="yes"/>
      <point x="46" y="297"/>
      <point x="57" y="286"/>
    </contour>
  </outline>
</glyph>
<glyph name="AE" format="2">
  <advance width="720"/>
  <unicode hex="00C6"/>
  <outline>
    <contour>
      <point x="354" y="0" type="curve" smooth="yes"/>
      <point x="663" y="0" type="line" smooth="yes"/>
      <point x="697" y="0"/>
      <point x="709" y="11"/>
      <point x="709" y="46" type="curve" smooth="yes"/>
      <point x="709" y="126" type="line" smooth="yes"/>
      <point x="709" y="160"/>
      <point x="697" y="171"/>
      <point x="663" y="171" type="curve" smooth="yes"/>
      <point x="537" y="171" type="line" smooth="yes"/>
      <point x="520" y="171"/>
      <point x="514" y="177"/>
      <point x="514" y="194" type="curve" smooth="yes"/>
      <point x="514" y="309" type="line" smooth="yes"/>
      <point x="514" y="326"/>
      <point x="520" y="331"/>
      <point x="537" y="331" type="curve" smooth="yes"/>
      <point x="617" y="331" type="line" smooth="yes"/>
      <point x="652" y="331"/>
      <point x="663" y="343"/>
      <point x="663" y="377" type="curve" smooth="yes"/>
      <point x="663" y="446" type="line" smooth="yes"/>
      <point x="663" y="480"/>
      <point x="652" y="491"/>
      <point x="617" y="491" type="curve" smooth="yes"/>
      <point x="537" y="491" type="line" smooth="yes"/>
      <point x="520" y="491"/>
      <point x="514" y="497"/>
      <point x="514" y="514" type="curve" smooth="yes"/>
      <point x="514" y="606" type="line" smooth="yes"/>
      <point x="514" y="623"/>
      <point x="520" y="629"/>
      <point x="537" y="629" type="curve" smooth="yes"/>
      <point x="663" y="629" type="line" smooth="yes"/>
      <point x="697" y="629"/>
      <point x="709" y="640"/>
      <point x="709" y="674" type="curve" smooth="yes"/>
      <point x="709" y="754" type="line" smooth="yes"/>
      <point x="709" y="789"/>
      <point x="697" y="800"/>
      <point x="663" y="800" type="curve" smooth="yes"/>
      <point x="171" y="800" type="line" smooth="yes"/>
      <point x="137" y="800"/>
      <point x="119" y="789"/>
      <point x="114" y="754" type="curve" smooth="yes"/>
      <point x="23" y="137" type="line" smooth="yes"/>
      <point x="19" y="114"/>
      <point x="11" y="69"/>
      <point x="11" y="46" type="curve" smooth="yes"/>
      <point x="11" y="11"/>
      <point x="23" y="0"/>
      <point x="57" y="0" type="curve" smooth="yes"/>
      <point x="185" y="0" type="line" smooth="yes"/>
      <point x="208" y="0"/>
      <point x="216" y="10"/>
      <point x="219" y="46" type="curve" smooth="yes"/>
      <point x="229" y="137" type="line" smooth="yes"/>
      <point x="231" y="154"/>
      <point x="234" y="160"/>
      <point x="251" y="160" type="curve" smooth="yes"/>
      <point x="286" y="160" type="line" smooth="yes"/>
      <point x="303" y="160"/>
      <point x="309" y="154"/>
      <point x="309" y="137" type="curve" smooth="yes"/>
      <point x="309" y="46" type="line" smooth="yes"/>
      <point x="309" y="11"/>
      <point x="320" y="0"/>
    </contour>
    <contour>
      <point x="240" y="350" type="curve" smooth="yes"/>
      <point x="240" y="358"/>
      <point x="241" y="366"/>
      <point x="242" y="378" type="curve" smooth="yes"/>
      <point x="263" y="606" type="line" smooth="yes"/>
      <point x="264" y="621"/>
      <point x="267" y="629"/>
      <point x="274" y="629" type="curve" smooth="yes"/>
      <point x="281" y="629"/>
      <point x="285" y="621"/>
      <point x="286" y="606" type="curve" smooth="yes"/>
      <point x="306" y="378" type="line" smooth="yes"/>
      <point x="307" y="366"/>
      <point x="309" y="358"/>
      <point x="309" y="350" type="curve" smooth="yes"/>
      <point x="309" y="337"/>
      <point x="303" y="331"/>
      <point x="286" y="331" type="curve" smooth="yes"/>
      <point x="263" y="331" type="line" smooth="yes"/>
      <point x="245" y="331"/>
      <point x="240" y="337"/>
    </contour>
  </outline>
</glyph>
<glyph name="multiply" format="2">
  <advance width="594"/>
  <unicode hex="00D7"/>
  <outline>
    <contour>
      <point x="79" y="199" type="curve" smooth="yes"/>
      <point x="127" y="151" type="line" smooth="yes"/>
      <point x="151" y="126"/>
      <point x="167" y="126"/>
      <point x="192" y="151" type="curve" smooth="yes"/>
      <point x="297" y="256" type="line"/>
      <point x="401" y="151" type="line" smooth="yes"/>
      <point x="426" y="126"/>
      <point x="442" y="126"/>
      <point x="466" y="151" type="curve" smooth="yes"/>
      <point x="514" y="199" type="line" smooth="yes"/>
      <point x="539" y="223"/>
      <point x="539" y="239"/>
      <point x="514" y="264" type="curve" smooth="yes"/>
      <point x="410" y="369" type="line"/>
      <point x="514" y="473" type="line" smooth="yes"/>
      <point x="539" y="498"/>
      <point x="539" y="514"/>
      <point x="514" y="538" type="curve" smooth="yes"/>
      <point x="466" y="586" type="line" smooth="yes"/>
      <point x="442" y="612"/>
      <point x="426" y="612"/>
      <point x="401" y="586" type="curve" smooth="yes"/>
      <point x="297" y="482" type="line"/>
      <point x="192" y="586" type="line" smooth="yes"/>
      <point x="167" y="612"/>
      <point x="151" y="612"/>
      <point x="127" y="586" type="curve" smooth="yes"/>
      <point x="79" y="538" type="line" smooth="yes"/>
      <point x="54" y="514"/>
      <point x="54" y="498"/>
      <point x="79" y="473" type="curve" smooth="yes"/>
      <point x="184" y="369" type="line"/>
      <point x="79" y="264" type="line" smooth="yes"/>
      <point x="54" y="239"/>
      <point x="54" y="223"/>
    </contour>
  </outline>
</glyph>
<glyph name="divide" format="2">
  <advance width="594"/>
  <unicode hex="00F7"/>
  <outline>
    <contour>
      <point x="69" y="320" type="curve" smooth="yes"/>
      <point x="526" y="320" type="line" smooth="yes"/>
      <point x="560" y="320"/>
      <point x="572" y="331"/>
      <point x="572" y="366" type="curve" smooth="yes"/>
      <point x="572" y="434" type="line" smooth="yes"/>
      <point x="572" y="469"/>
      <point x="560" y="480"/>
      <point x="526" y="480" type="curve" smooth="yes"/>
      <point x="69" y="480" type="line" smooth="yes"/>
      <point x="34" y="480"/>
      <point x="23" y="469"/>
      <point x="23" y="434" type="curve" smooth="yes"/>
      <point x="23" y="366" type="line" smooth="yes"/>
      <point x="23" y="331"/>
      <point x="34" y="320"/>
    </contour>
    <contour>
      <point x="297" y="572" type="curve" smooth="yes"/>
      <point x="347" y="572"/>
      <point x="389" y="613"/>
      <point x="389" y="663" type="curve" smooth="yes"/>
      <point x="389" y="713"/>
      <point x="347" y="754"/>
      <point x="297" y="754" type="curve" smooth="yes"/>
      <point x="247" y="754"/>
      <point x="206" y="713"/>
      <point x="206" y="663" type="curve" smooth="yes"/>
      <point x="206" y="613"/>
      <point x="247" y="572"/>
    </contour>
    <contour>
      <point x="297" y="46" type="curve" smooth="yes"/>
      <point x="347" y="46"/>
      <point x="389" y="87"/>
      <point x="389" y="137" type="curve" smooth="yes"/>
      <point x="389" y="187"/>
      <point x="347" y="229"/>
      <point x="297" y="229" type="curve" smooth="yes"/>
      <point x="247" y="229"/>
      <point x="206" y="187"/>
      <point x="206" y="137" type="curve" smooth="yes"/>
      <point x="206" y="87"/>
      <point x="247" y="46"/>
    </contour>
  </outline>
</glyph>
<glyph name="guilsinglleft" format="2">
  <advance width="320"/>
  <unicode hex="2039"/>
  <outline>
    <contour>
      <point x="23" y="354" type="curve" smooth="yes"/>
      <point x="23" y="336"/>
      <point x="26" y="317"/>
      <point x="34" y="303" type="curve" smooth="yes"/>
      <point x="159" y="91" type="line" smooth="yes"/>
      <point x="179" y="56"/>
      <point x="182" y="46"/>
      <point x="216" y="46" type="curve" smooth="yes"/>
      <point x="250" y="46" type="line" smooth="yes"/>
      <point x="280" y="46"/>
      <point x="297" y="54"/>
      <point x="297" y="79" type="curve" smooth="yes"/>
      <point x="297" y="85"/>
      <point x="298" y="91"/>
      <point x="295" y="97" type="curve" smooth="yes"/>
      <point x="170" y="309" type="line" smooth="yes"/>
      <point x="160" y="327"/>
      <point x="154" y="345"/>
      <point x="154" y="354" type="curve" smooth="yes"/>
      <point x="154" y="371"/>
      <point x="161" y="384"/>
      <point x="170" y="400" type="curve" smooth="yes"/>
      <point x="295" y="612" type="line" smooth="yes"/>
      <point x="298" y="617"/>
      <point x="297" y="624"/>
      <point x="297" y="630" type="curve" smooth="yes"/>
      <point x="297" y="655"/>
      <point x="280" y="663"/>
      <point x="250" y="663" type="curve" smooth="yes"/>
      <point x="216" y="663" type="line" smooth="yes"/>
      <point x="182" y="663"/>
      <point x="179" y="653"/>
      <point x="159" y="617" type="curve" smooth="yes"/>
      <point x="34" y="406" type="line" smooth="yes"/>
      <point x="29" y="395"/>
      <point x="23" y="375"/>
    </contour>
  </outline>
</glyph>
<glyph name="divisionslash" format="2">
  <advance width="343"/>
  <unicode hex="2215"/>
  <outline>
    <contour>
      <point x="58" y="0" type="curve" smooth="yes"/>
      <point x="138" y="0" type="line" smooth="yes"/>
      <point x="173" y="0"/>
      <point x="177" y="11"/>
      <point x="184" y="46" type="curve" smooth="yes"/>
      <point x="329" y="749" type="line" smooth="yes"/>
      <point x="330" y="754"/>
      <point x="331" y="761"/>
      <point x="331" y="767" type="curve" smooth="yes"/>
      <point x="331" y="792"/>
      <point x="314" y="800"/>
      <point x="285" y="800" type="curve" smooth="yes"/>
      <point x="205" y="800" type="line" smooth="yes"/>
      <point x="170" y="800"/>
      <point x="166" y="789"/>
      <point x="159" y="754" type="curve" smooth="yes"/>
      <point x="14" y="51" type="line" smooth="yes"/>
      <point x="13" y="47"/>
      <point x="11" y="41"/>
      <point x="11" y="33" type="curve" smooth="yes"/>
      <point x="11" y="9"/>
      <point x="29" y="0"/>
    </contour>
  </outline>
</glyph>
<glyph name="ringcomb.case" format="2">
  <anchor x="143" y="800" name="_top"/>
  <anchor x="143" y="990" name="top"/>
  <outline>
    <contour>
      <point x="143" y="846" type="curve" smooth="yes"/>
      <point x="193" y="846"/>
      <point x="234" y="881"/>
      <point x="234" y="932" type="curve" smooth="yes"/>
      <point x="234" y="982"/>
      <point x="193" y="1017"/>
      <point x="143" y="1017" type="curve" smooth="yes"/>
      <point x="93" y="1017"/>
      <point x="51" y="982"/>
      <point x="51" y="932" type="curve" smooth="yes"/>
      <point x="51" y="881"/>
      <point x="93" y="846"/>
    </contour>
    <contour>
      <point x="143" y="897" type="curve" smooth="yes"/>
      <point x="123" y="897"/>
      <point x="109" y="912"/>
      <point x="109" y="932" type="curve" smooth="yes"/>
      <point x="109" y="951"/>
      <point x="123" y="966"/>
      <point x="143" y="966" type="curve" smooth="yes"/>
      <point x="162" y="966"/>
      <point x="177" y="951"/>
      <point x="177" y="932" type="curve" smooth="yes"/>
      <point x="177" y="912"/>
      <point x="162" y="897"/>
    </contour>
  </outline>
</glyph>
